<?xml version="1.0" encoding="UTF-8"?>
<svg id="Calque_1" data-name="Calque 1" xmlns="http://www.w3.org/2000/svg" viewBox="0 0 1080 1080">
  <defs>
    <style>
      .cls-1 {
        fill: #1279c4;
        stroke-width: 0px;
      }
    </style>
  </defs>
  <path class="cls-1" d="m184.93,445.48c48.17,48.13,96.34,96.25,143.92,143.79-21.23,21.24-41.91,41.93-65.17,65.2-1.59-2.64-3.02-6.54-5.68-9.22-70.1-70.32-140.33-140.51-210.52-210.74-23.84-23.85-23.94-48.43-.23-72.16,70.43-70.48,140.9-140.93,211.36-211.38,2.44-2.44,5.01-4.74,6.65-6.29,21.04,21.05,41.69,41.7,63.49,63.5-47.23,46.98-95.64,95.13-146.34,145.55,7.09,0,11.1,0,15.1,0,173.75,0,347.5-.82,521.24.28,125.25.79,217.15,58.87,269.9,172.1,80.13,172.02-31.07,376.16-218.56,405.28-16.51,2.56-33.37,3.89-50.08,3.91-226.18.25-452.37.17-678.55.17-3.46,0-6.92,0-11.11,0v-89.7c4.71,0,9.12,0,13.52,0,224.78,0,449.57-.67,674.35.32,92.66.41,169.07-57.4,195.97-136.86,44.53-131.54-52.44-265.63-193.01-266.22-121.65-.51-243.31-.11-364.97-.11-53.14,0-106.27,0-159.41,0h-11.17l-.71,2.58Z"/>
</svg>