<?xml version="1.0" encoding="UTF-8"?>
<svg id="Calque_1" data-name="Calque 1" xmlns="http://www.w3.org/2000/svg" viewBox="0 0 1080 1080">
  <defs>
    <style>
      .cls-1 {
        fill: #fff;
        stroke-width: 0px;
      }
    </style>
  </defs>
  <path class="cls-1" d="m276.14,46c19.57,4.24,38.38,10.23,54.04,23.46,2.21,1.86,4.52,3.62,6.56,5.65,44.37,44.31,88.92,88.45,132.97,133.07,32.72,33.15,38.42,78.72,15.38,116.62-10.39,17.09-25.06,29.11-43.88,35.88-27.21,9.79-48.23,26.44-59.95,53.53-7.8,18.05-8.89,36.46-3.81,55.53,13.23,49.66,40.51,91.3,73.71,129.48,39.81,45.79,85.35,84.61,140.18,111.48,22.87,11.21,46.46,21,72.91,17.32,34.95-4.87,61.62-21.87,75.37-55.25,9.01-21.89,19.97-41.53,41.21-53.97,34.54-20.23,78.1-17.6,107.7,9.36,27.07,24.66,52.45,51.2,78.35,77.13,23.62,23.66,48.09,46.61,70.09,71.7,27.75,31.66,28.55,81.21,4.07,115.49-5.01,7.02-10.65,13.71-16.72,19.85-25.98,26.32-52.8,51.82-78.22,78.67-27.12,28.65-60.62,41.15-98.99,42.78-41.08,1.74-80.46-7.42-118.96-20.44-75.86-25.66-144.31-65.53-209.09-111.85-107.43-76.81-201.54-167.74-282.65-271.88-59.71-76.66-110.83-158.48-142.41-251.14-13.74-40.33-23.02-81.6-20.85-124.7,1.9-37.75,14.23-70.6,42.36-97.17,23.6-22.3,46.52-45.36,68.92-68.86,19.71-20.7,41.06-37.82,70.48-41.73h21.23Z"/>
</svg>