<?xml version="1.0" encoding="UTF-8"?>
<svg id="Calque_1" data-name="Calque 1" xmlns="http://www.w3.org/2000/svg" viewBox="0 0 1080 1080">
  <defs>
    <style>
      .cls-1 {
        fill: #fff;
        stroke-width: 0px;
      }
    </style>
  </defs>
  <path class="cls-1" d="m761.76,97.02c12.33,10.13,13.21,16.08,4.32,30.12-58.52,92.39-117.05,184.77-175.57,277.16-2.15,3.4-4.26,6.83-7.61,12.21,4.77,0,7.95,0,11.12,0,55.82,0,111.65,0,167.47,0,2.81,0,5.61.06,8.42,0,7.48-.13,13.43,2.36,16.66,9.58,3.08,6.88.89,12.72-3.63,18.1-18.26,21.71-36.51,43.44-54.78,65.14-148.62,176.48-297.24,352.95-445.88,529.41-3.41,4.05-6.75,8.23-10.66,11.76-5.64,5.09-12.33,6.33-18.88,1.91-6.62-4.47-9.29-10.95-6.42-18.74,2.79-7.59,6.02-15.02,9.17-22.48,55.1-130.82,110.21-261.62,165.31-392.44,1.31-3.11,2.49-6.29,4.28-10.83h-10.59c-49.27,0-98.55.02-147.82-.01-19.57-.01-26.16-10.37-17.49-27.72,78.24-156.51,156.49-313.02,234.97-469.41,2.64-5.25,7.86-9.21,11.88-13.77,88.58,0,177.17,0,265.75,0Z"/>
</svg>