<?xml version="1.0" encoding="UTF-8"?>
<svg id="Calque_1" data-name="Calque 1" xmlns="http://www.w3.org/2000/svg" viewBox="0 0 1080 1080">
  <defs>
    <style>
      .cls-1 {
        fill: #fff;
        stroke-width: 0px;
      }
    </style>
  </defs>
  <path class="cls-1" d="m147,553.75c-22.08,0-42.82,0-63.56,0-19.93,0-34.02-8.16-40.29-23.97-7.04-17.75-1.7-32.41,11.48-45.39C206.21,335.23,357.68,185.96,509.24,36.78c19.4-19.1,41.61-19.09,60.92-.08,151.55,149.2,303.06,298.43,454.54,447.7,14.46,14.25,18.52,29.63,11.55,45.34-7.67,17.27-21.72,24.39-40.26,24.15-20.76-.27-41.52-.06-63.79-.06,0,5.06,0,9.37,0,13.67.06,147.99.13,295.99.19,443.98.01,31.89-14.46,46.51-46.08,46.52-66.55.02-133.1.03-199.64,0-34.05-.02-52.22-18.14-52.25-52.36-.08-77.34-.02-154.69-.03-232.03,0-25.65-4.32-30.03-29.51-30.03-43.13,0-86.25,0-129.38,0-26.46,0-30.63,4.09-30.63,30.09,0,76.6.02,153.2-.01,229.8-.02,37.35-17.23,54.54-54.49,54.54-65.8,0-131.61.01-197.41,0-31.25,0-45.94-14.54-45.94-45.48-.01-147.99,0-295.99,0-443.98v-14.77Z"/>
</svg>