<?xml version="1.0" encoding="UTF-8"?>
<svg id="Calque_1" data-name="Calque 1" xmlns="http://www.w3.org/2000/svg" viewBox="0 0 1080 1080">
  <defs>
    <style>
      .cls-1 {
        fill: #fff;
        stroke-width: 0px;
      }
    </style>
  </defs>
  <path class="cls-1" d="m125.41,700.89v-249.53h38.73v249.53h-38.73Z"/>
  <path class="cls-1" d="m210.15,700.89v-249.53h35.1l129.35,183.99h1.38v-183.99h37.7v249.53h-34.93l-129.35-183.82h-1.56v183.82h-37.7Z"/>
  <path class="cls-1" d="m459.68,700.89v-249.53h155.8v33.37h-117.07v79.03h107.21v32.68h-107.21v104.45h-38.73Z"/>
  <path class="cls-1" d="m874,576.21c0,79.37-45.13,128.83-116.9,128.83s-116.9-49.46-116.9-128.83,44.96-129,116.9-129,116.9,49.63,116.9,129Zm-194.19,0c0,58.1,29.92,94.76,77.3,94.76s77.12-36.66,77.12-94.76-29.74-94.93-77.12-94.93-77.3,36.66-77.3,94.93Z"/>
</svg>