<?xml version="1.0" encoding="UTF-8"?>
<svg id="Calque_1" data-name="Calque 1" xmlns="http://www.w3.org/2000/svg" viewBox="0 0 1080 1080">
  <defs>
    <style>
      .cls-1 {
        fill: #fff;
        stroke-width: 0px;
      }
    </style>
  </defs>
  <path class="cls-1" d="m282.34,705.16v-183.91h-1.21l-75.33,182.01h-28.75l-75.51-182.01h-1.21v183.91h-35.33v-249.89h44.85l80.87,197.25h1.39l80.7-197.25h45.03v249.89h-35.5Z"/>
  <path class="cls-1" d="m522.53,705.16h-158.63v-249.89h158.63v33.42h-119.84v73.08h113.43v32.21h-113.43v77.58h119.84v33.6Z"/>
  <path class="cls-1" d="m562.36,705.16v-249.89h35.15l129.54,184.26h1.39v-184.26h37.75v249.89h-34.98l-129.54-184.09h-1.56v184.09h-37.75Z"/>
  <path class="cls-1" d="m851.05,614.07c0,35.67,22.51,60.79,62.34,60.79s62.52-25.11,62.52-60.79v-158.8h38.62v162.09c0,53.86-38.45,91.96-101.14,91.96s-101.14-38.1-101.14-91.96v-162.09h38.79v158.8Z"/>
</svg>