<?xml version="1.0" encoding="UTF-8"?>
<svg id="Calque_1" data-name="Calque 1" xmlns="http://www.w3.org/2000/svg" viewBox="0 0 1080 1080">
  <defs>
    <style>
      .cls-1 {
        fill: #fff;
        stroke-width: 0px;
      }
    </style>
  </defs>
  <path class="cls-1" d="m537.94,582.82c0,172.1-97.86,279.34-253.47,279.34S31,754.92,31,582.82s97.49-279.72,253.47-279.72,253.47,107.61,253.47,279.72Zm-421.07,0c0,125.98,64.87,205.47,167.6,205.47s167.23-79.49,167.23-205.47-64.49-205.85-167.23-205.85-167.6,79.49-167.6,205.85Z"/>
  <path class="cls-1" d="m617.8,853.16V312.1h83.99v257.59h3.37l226.1-257.59h99.74l-214.47,239.6,232.47,301.46h-104.24l-187.48-243.72-55.49,63.37v180.35h-83.99Z"/>
</svg>