<?xml version="1.0" encoding="UTF-8"?>
<svg id="Calque_1" data-name="Calque 1" xmlns="http://www.w3.org/2000/svg" viewBox="0 0 1080 1080">
  <defs>
    <style>
      .cls-1 {
        fill: #fff;
        stroke-width: 0px;
      }
    </style>
  </defs>
  <path class="cls-1" d="m539.65,1037H81.36c-36.66,0-39-2.1-38.69-38.3,1.1-128.16,51.49-232.69,152.36-311.71,65.83-51.57,141.62-78.28,225.29-79.63,78.22-1.26,156.49-1.09,234.73-.17,197.47,2.33,362.13,155.22,379.48,351.74,1.53,17.28,1.74,34.7,1.96,52.07.25,19.37-6.6,25.97-26.12,25.98-129.99.03-259.99.02-389.98.02-26.91,0-53.82,0-80.73,0Z"/>
  <path class="cls-1" d="m540.55,517.95c-129.92.4-237.03-106.5-237.27-236.82-.24-132.24,106.29-240.28,236.81-240.18,132.79.11,239.57,106.14,240.1,238.42.53,131.61-106.5,238.17-239.64,238.58Z"/>
</svg>