<?xml version="1.0" encoding="UTF-8"?>
<svg id="Calque_1" data-name="Calque 1" xmlns="http://www.w3.org/2000/svg" viewBox="0 0 1080 1080">
  <defs>
    <style>
      .cls-1 {
        fill: #fb413a;
        stroke-width: 0px;
      }
    </style>
  </defs>
  <path class="cls-1" d="m1044,719.27c-4.96,19.34-14.21,35.79-31.78,46.45-19.61,11.91-40.43,14.03-60.88,3.73-22.48-11.32-44.09-24.37-65.97-36.85-34.96-19.95-69.75-40.21-104.83-59.95-6.14-3.46-8.74-7.07-8.72-14.38.28-78.96.28-157.92,0-236.87-.02-7.2,2.32-11,8.5-14.53,52.59-30.01,105.72-59.15,157.19-91,45.15-27.94,98.19-3.06,105.5,42.9.14.88.65,1.71.99,2.56v357.94Z"/>
  <path class="cls-1" d="m376.45,835.97c-75.04,0-150.09.16-225.13-.06-55.72-.16-99.11-33.52-111.26-85.54-2.14-9.15-2.88-18.8-2.9-28.23-.19-121.25-.2-242.5-.09-363.75.06-65.48,46.82-113.43,112.32-113.63,151.73-.46,303.46-.47,455.18,0,65.1.2,111.78,46.43,112.15,111.58.7,122.56.69,245.13,0,367.68-.36,65.5-48.19,111.65-114.16,111.88-75.37.26-150.74.06-226.12.06Z"/>
</svg>