<?xml version="1.0" encoding="UTF-8"?>
<svg id="Calque_1" data-name="Calque 1" xmlns="http://www.w3.org/2000/svg" viewBox="0 0 1080 1080">
  <defs>
    <style>
      .cls-1 {
        fill: #fff;
        stroke-width: 0px;
      }
    </style>
  </defs>
  <path class="cls-1" d="m682.51,795.06c-193.31,124.88-429.96,64.03-547.88-98.81C17.03,533.83,34.72,311.84,176.3,172.76,320.42,31.18,543.22,16.55,703.07,137.78c160.71,121.88,214.61,354.34,93.23,542.98,3.11,3.29,6.38,6.91,9.83,10.36,64.07,64.12,128.36,128.01,192.17,192.38,37.57,37.9,33.03,95.07-9.16,124.87-32.65,23.06-74.88,18.63-105.37-11.65-48.83-48.49-97.38-97.26-146.01-145.96-18.36-18.39-36.6-36.9-55.24-55.7Zm-222.81-54.26c155.25.03,281.89-126.44,282.06-281.69.17-155.36-126.07-282.1-281.3-282.4-155.86-.3-282.78,126.44-282.67,282.28.1,155.25,126.68,281.77,281.92,281.8Z"/>
</svg>