<?xml version="1.0" encoding="UTF-8"?>
<svg id="Calque_1" data-name="Calque 1" xmlns="http://www.w3.org/2000/svg" viewBox="0 0 1080 1080">
  <defs>
    <style>
      .cls-1 {
        fill: #fff;
        stroke-width: 0px;
      }
    </style>
  </defs>
  <path class="cls-1" d="m39,256.32c2.35-13.8,4.69-27.61,7.04-41.41,1.3-.88,2.59-1.75,3.89-2.63,1.72,3.08,2.86,6.75,5.26,9.16,36.93,37.15,74.1,74.05,110.97,111.26,4.4,4.45,8.2,5.74,14.29,4.06,35.56-9.8,71.21-19.31,106.9-28.62,5.95-1.55,8.86-4.25,10.46-10.45,9.22-35.72,18.82-71.34,28.74-106.87,1.71-6.13.59-9.81-3.86-14.22-37-36.62-73.71-73.53-110.56-110.3-2.48-2.47-5.35-4.55-10.25-8.67,10.86-2.33,18.67-4.43,26.62-5.65,98.53-15.09,195.87,38.43,235.33,129.84,19.41,44.95,24.01,91.63,12.53,139.43-1.76,7.35.05,11.64,5.11,16.69,169.94,169.54,339.69,339.27,509.59,508.85,18.79,18.76,31.07,40.19,34.2,67.12,7.23,62.25-41.75,116.86-104.91,116.09-29.88-.36-54.63-12.17-75.52-33.17-35.8-36-71.78-71.83-107.68-107.73-133.16-133.16-266.35-266.27-399.33-399.61-5.75-5.77-10.35-6.96-18.25-4.69-111.74,32.03-232.38-31.93-268.19-142.47-5.78-17.85-8.33-36.74-12.38-55.16,0-10.28,0-20.57,0-30.85Zm931.59,685.84c.09-21.97-17.44-39.74-39.42-39.95-22.12-.21-39.84,17.08-40.1,39.14-.27,22.67,17.25,40.46,39.76,40.38,22.11-.08,39.66-17.55,39.76-39.57Z"/>
</svg>